<svg xmlns="http://www.w3.org/2000/svg" viewBox="0 0 856 640" width="856" height="640" xmlns:c2pa="http://c2pa.org/manifest"><metadata><c2pa:manifest>AAAWgmp1bWIAAAAeanVtZGMycGEAEQAQgAAAqgA4m3EDYzJwYQAAABZcanVtYgAAAEdqdW1kYzJtYQARABCAAACqADibcQN1cm46YzJwYTozZTY3NDNlYS1lNWZiLTRhMjMtYjdjNS0zMTcwYzBjOWFlZDcAAAADl2p1bWIAAAApanVtZGMyYXMAEQAQgAAAqgA4m3EDYzJwYS5hc3NlcnRpb25zAAAAALxqdW1iAAAARGp1bWRjYm9yABEAEIAAAKoAOJtxE2MycGEuaW5ncmVkaWVudC52MwAAAAAYYzJzaPhyPDy6czdGiitObX0KcCUAAABwY2JvcqNpZGM6Zm9ybWF0bWltYWdlL3N2Zyt4bWxqaW5zdGFuY2VJRHgseG1wOmlpZDpiYzdmOTVjZS01ZjJjLTQ3NjYtOTg1Mi03MDNlMjY2NzY4ZDVscmVsYXRpb25zaGlwaHBhcmVudE9mAAAB4mp1bWIAAABBanVtZGNib3IAEQAQgAAAqgA4m3ETYzJwYS5hY3Rpb25zLnYyAAAAABhjMnNo+ermL6wO0dp0JFgD3QOCfQAAAZljYm9yomdhY3Rpb25zgqJmYWN0aW9ua2MycGEub3BlbmVkanBhcmFtZXRlcnOha2luZ3JlZGllbnRzgaJjdXJseC1zZWxmI2p1bWJmPWMycGEuYXNzZXJ0aW9ucy9jMnBhLmluZ3JlZGllbnQudjNkaGFzaFggUmY4wdoFrl5FniF4TjhqNk08aBdEwUHcr6OLgRdsvbukZmFjdGlvbngdY29tLmFudGhyb3BpYy5jbGF1ZGUucHJvdmlkZWRqcGFyYW1ldGVyc6F4H2NvbS5hbnRocm9waWMub3JpZ2luLWNvbmZpZGVuY2VndW5rbm93bmtkZXNjcmlwdGlvbnhmQ2xhdWRlIHByb3ZpZGVkIHRoaXMgZmlsZSBhdCB0aGUgcmVxdWVzdCBvZiBhIHVzZXIgYW5kIG1heSBoYXZlIGNyZWF0ZWQgb3IgbW9kaWZpZWQgdGhlIGZpbGUgY29udGVudHMubXNvZnR3YXJlQWdlbnShZG5hbWVmQ2xhdWRlcmFsbEFjdGlvbnNJbmNsdWRlZPUAAADIanVtYgAAAEBqdW1kY2JvcgARABCAAACqADibcRNjMnBhLmhhc2guZGF0YQAAAAAYYzJzaO8a6vsbYs0aL/sa4Bc4sCQAAACAY2JvcqVjYWxnZnNoYTI1NmNwYWRNAAAAAAAAAAAAAAAAAGRoYXNoWCCHhb6sGl8e2jpE/5P/U1QR4ZRaEJgJ/nE30zi2xDCmQmRuYW1lbmp1bWJmIG1hbmlmZXN0amV4Y2x1c2lvbnOBomVzdGFydBiWZmxlbmd0aBkeBAAAAj5qdW1iAAAAJ2p1bWRjMmNsABEAEIAAAKoAOJtxA2MycGEuY2xhaW0udjIAAAACD2Nib3KlY2FsZ2ZzaGEyNTZpc2lnbmF0dXJleE1zZWxmI2p1bWJmPS9jMnBhL3VybjpjMnBhOjNlNjc0M2VhLWU1ZmItNGEyMy1iN2M1LTMxNzBjMGM5YWVkNy9jMnBhLnNpZ25hdHVyZWppbnN0YW5jZUlEeCx4bXA6aWlkOmE0NmU1ZmEyLWI2NWItNDZlMy1hYmQ3LTQ5Y2YyNjEyZDljZnJjcmVhdGVkX2Fzc2VydGlvbnODomN1cmx4LXNlbGYjanVtYmY9YzJwYS5hc3NlcnRpb25zL2MycGEuaW5ncmVkaWVudC52M2RoYXNoWCBSZjjB2gWuXkWeIXhOOGo2TTxoF0TBQdyvo4uBF2y9u6JjdXJseCpzZWxmI2p1bWJmPWMycGEuYXNzZXJ0aW9ucy9jMnBhLmFjdGlvbnMudjJkaGFzaFgg/gvuwDv7v6i0qcXQAwcu561092L+PmR1bthnqpuIn9WiY3VybHgpc2VsZiNqdW1iZj1jMnBhLmFzc2VydGlvbnMvYzJwYS5oYXNoLmRhdGFkaGFzaFggNa801OHhqv5JM7ipTLk0tPjiyuBIHHPdgJ3HmS2eabx0Y2xhaW1fZ2VuZXJhdG9yX2luZm+jZG5hbWVvQW50aHJvcGljIEZpbGVzZ3ZlcnNpb25lMS4wLjBrc3BlY1ZlcnNpb25lMi40LjAAABA4anVtYgAAAChqdW1kYzJjcwARABCAAACqADibcQNjMnBhLnNpZ25hdHVyZQAAABAIY2JvctKEWQISogEmGCFZAgowggIGMIIBjaADAgECAhRA5aAK7sI50L64g/oGQgU9Z1UTADAKBggqhkjOPQQDAzBJMRcwFQYDVQQKEw5BbnRocm9waWMsIFBCQzEuMCwGA1UEAxMlQW50aHJvcGljIENvbnRlbnQgQ3JlZGVudGlhbHMgUm9vdCBDQTAeFw0yNjA4MDcxODQzNTZaFw0yODA4MDYxOTQzNTZaMEQxFzAVBgNVBAoTDkFudGhyb3BpYywgUEJDMSkwJwYDVQQDEyBBbnRocm9waWMgQ2xhdWRlIENvbnRlbnQgU2lnbmluZzBZMBMGByqGSM49AgEGCCqGSM49AwEHA0IABJh6CmvLUBgFFNU0vUKlOVtE6djd17L5SuwX0LemFisBM3dkd/3cyjxFA3Qo5S46fX0/ihY0VZ7mfb9KF703t5OjWDBWMA4GA1UdDwEB/wQEAwIHgDAVBgNVHSUEDjAMBgorBgEEAYPoXgIBMAwGA1UdEwEB/wQCMAAwHwYDVR0jBBgwFoAUzlHiBIFOZFsj+OPEz5o+nMHXXMIwCgYIKoZIzj0EAwMDZwAwZAIwMXMdFJ4BetLLVY7ORuE9noqbbAZOZn/aArXyTwFAZfKrPzxF2vPoJNf1+UCdg1XGAjBwX1zd9WGqYkqmL5SFqw1QySjr1zJfpJM9+1rdDwSPLMOPOjKuiXjoU/pUUeG9RwmhY3BhZFkNngAAAAAAAAAAAAAAAAAAAAAAAAAAAAAAAAAAAAAAAAAAAAAAAAAAAAAAAAAAAAAAAAAAAAAAAAAAAAAAAAAAAAAAAAAAAAAAAAAAAAAAAAAAAAAAAAAAAAAAAAAAAAAAAAAAAAAAAAAAAAAAAAAAAAAAAAAAAAAAAAAAAAAAAAAAAAAAAAAAAAAAAAAAAAAAAAAAAAAAAAAAAAAAAAAAAAAAAAAAAAAAAAAAAAAAAAAAAAAAAAAAAAAAAAAAAAAAAAAAAAAAAAAAAAAAAAAAAAAAAAAAAAAAAAAAAAAAAAAAAAAAAAAAAAAAAAAAAAAAAAAAAAAAAAAAAAAAAAAAAAAAAAAAAAAAAAAAAAAAAAAAAAAAAAAAAAAAAAAAAAAAAAAAAAAAAAAAAAAAAAAAAAAAAAAAAAAAAAAAAAAAAAAAAAAAAAAAAAAAAAAAAAAAAAAAAAAAAAAAAAAAAAAAAAAAAAAAAAAAAAAAAAAAAAAAAAAAAAAAAAAAAAAAAAAAAAAAAAAAAAAAAAAAAAAAAAAAAAAAAAAAAAAAAAAAAAAAAAAAAAAAAAAAAAAAAAAAAAAAAAAAAAAAAAAAAAAAAAAAAAAAAAAAAAAAAAAAAAAAAAAAAAAAAAAAAAAAAAAAAAAAAAAAAAAAAAAAAAAAAAAAAAAAAAAAAAAAAAAAAAAAAAAAAAAAAAAAAAAAAAAAAAAAAAAAAAAAAAAAAAAAAAAAAAAAAAAAAAAAAAAAAAAAAAAAAAAAAAAAAAAAAAAAAAAAAAAAAAAAAAAAAAAAAAAAAAAAAAAAAAAAAAAAAAAAAAAAAAAAAAAAAAAAAAAAAAAAAAAAAAAAAAAAAAAAAAAAAAAAAAAAAAAAAAAAAAAAAAAAAAAAAAAAAAAAAAAAAAAAAAAAAAAAAAAAAAAAAAAAAAAAAAAAAAAAAAAAAAAAAAAAAAAAAAAAAAAAAAAAAAAAAAAAAAAAAAAAAAAAAAAAAAAAAAAAAAAAAAAAAAAAAAAAAAAAAAAAAAAAAAAAAAAAAAAAAAAAAAAAAAAAAAAAAAAAAAAAAAAAAAAAAAAAAAAAAAAAAAAAAAAAAAAAAAAAAAAAAAAAAAAAAAAAAAAAAAAAAAAAAAAAAAAAAAAAAAAAAAAAAAAAAAAAAAAAAAAAAAAAAAAAAAAAAAAAAAAAAAAAAAAAAAAAAAAAAAAAAAAAAAAAAAAAAAAAAAAAAAAAAAAAAAAAAAAAAAAAAAAAAAAAAAAAAAAAAAAAAAAAAAAAAAAAAAAAAAAAAAAAAAAAAAAAAAAAAAAAAAAAAAAAAAAAAAAAAAAAAAAAAAAAAAAAAAAAAAAAAAAAAAAAAAAAAAAAAAAAAAAAAAAAAAAAAAAAAAAAAAAAAAAAAAAAAAAAAAAAAAAAAAAAAAAAAAAAAAAAAAAAAAAAAAAAAAAAAAAAAAAAAAAAAAAAAAAAAAAAAAAAAAAAAAAAAAAAAAAAAAAAAAAAAAAAAAAAAAAAAAAAAAAAAAAAAAAAAAAAAAAAAAAAAAAAAAAAAAAAAAAAAAAAAAAAAAAAAAAAAAAAAAAAAAAAAAAAAAAAAAAAAAAAAAAAAAAAAAAAAAAAAAAAAAAAAAAAAAAAAAAAAAAAAAAAAAAAAAAAAAAAAAAAAAAAAAAAAAAAAAAAAAAAAAAAAAAAAAAAAAAAAAAAAAAAAAAAAAAAAAAAAAAAAAAAAAAAAAAAAAAAAAAAAAAAAAAAAAAAAAAAAAAAAAAAAAAAAAAAAAAAAAAAAAAAAAAAAAAAAAAAAAAAAAAAAAAAAAAAAAAAAAAAAAAAAAAAAAAAAAAAAAAAAAAAAAAAAAAAAAAAAAAAAAAAAAAAAAAAAAAAAAAAAAAAAAAAAAAAAAAAAAAAAAAAAAAAAAAAAAAAAAAAAAAAAAAAAAAAAAAAAAAAAAAAAAAAAAAAAAAAAAAAAAAAAAAAAAAAAAAAAAAAAAAAAAAAAAAAAAAAAAAAAAAAAAAAAAAAAAAAAAAAAAAAAAAAAAAAAAAAAAAAAAAAAAAAAAAAAAAAAAAAAAAAAAAAAAAAAAAAAAAAAAAAAAAAAAAAAAAAAAAAAAAAAAAAAAAAAAAAAAAAAAAAAAAAAAAAAAAAAAAAAAAAAAAAAAAAAAAAAAAAAAAAAAAAAAAAAAAAAAAAAAAAAAAAAAAAAAAAAAAAAAAAAAAAAAAAAAAAAAAAAAAAAAAAAAAAAAAAAAAAAAAAAAAAAAAAAAAAAAAAAAAAAAAAAAAAAAAAAAAAAAAAAAAAAAAAAAAAAAAAAAAAAAAAAAAAAAAAAAAAAAAAAAAAAAAAAAAAAAAAAAAAAAAAAAAAAAAAAAAAAAAAAAAAAAAAAAAAAAAAAAAAAAAAAAAAAAAAAAAAAAAAAAAAAAAAAAAAAAAAAAAAAAAAAAAAAAAAAAAAAAAAAAAAAAAAAAAAAAAAAAAAAAAAAAAAAAAAAAAAAAAAAAAAAAAAAAAAAAAAAAAAAAAAAAAAAAAAAAAAAAAAAAAAAAAAAAAAAAAAAAAAAAAAAAAAAAAAAAAAAAAAAAAAAAAAAAAAAAAAAAAAAAAAAAAAAAAAAAAAAAAAAAAAAAAAAAAAAAAAAAAAAAAAAAAAAAAAAAAAAAAAAAAAAAAAAAAAAAAAAAAAAAAAAAAAAAAAAAAAAAAAAAAAAAAAAAAAAAAAAAAAAAAAAAAAAAAAAAAAAAAAAAAAAAAAAAAAAAAAAAAAAAAAAAAAAAAAAAAAAAAAAAAAAAAAAAAAAAAAAAAAAAAAAAAAAAAAAAAAAAAAAAAAAAAAAAAAAAAAAAAAAAAAAAAAAAAAAAAAAAAAAAAAAAAAAAAAAAAAAAAAAAAAAAAAAAAAAAAAAAAAAAAAAAAAAAAAAAAAAAAAAAAAAAAAAAAAAAAAAAAAAAAAAAAAAAAAAAAAAAAAAAAAAAAAAAAAAAAAAAAAAAAAAAAAAAAAAAAAAAAAAAAAAAAAAAAAAAAAAAAAAAAAAAAAAAAAAAAAAAAAAAAAAAAAAAAAAAAAAAAAAAAAAAAAAAAAAAAAAAAAAAAAAAAAAAAAAAAAAAAAAAAAAAAAAAAAAAAAAAAAAAAAAAAAAAAAAAAAAAAAAAAAAAAAAAAAAAAAAAAAAAAAAAAAAAAAAAAAAAAAAAAAAAAAAAAAAAAAAAAAAAAAAAAAAAAAAAAAAAAAAAAAAAAAAAAAAAAAAAAAAAAAAAAAAAAAAAAAAAAAAAAAAAAAAAAAAAAAAAAAAAAAAAAAAAAAAAAAAAAAAAAAAAAAAAAAAAAAAAAAAAAAAAAAAAAAAAAAAAAAAAAAAAAAAAAAAAAAAAAAAAAAAAAAAAAAAAAAAAAAAAAAAAAAAAAAAAAAAAAAAAAAAAAAAAAAAAAAAAAAAAAAAAAAAAAAAAAAAAAAAAAAAAAAAAAAAAAAAAAAAAAAAAAAAAAAAAAAAAAAAAAAAAAAAAAAAAAAAAAAAAAAAAAAAAAAAAAAAAAAAAAAAAAAAAAAAAAAAAAAAAAAAAAAAAAAAAAAAAAAAAAAAAAAAAAAAAAAAAAAAAAAAAAAAAAAAAAAAAAAAAAAAAAAAAAAAAAAAAAAAAAAAAAAAAAAAAAAAAAAAAAAAAAAAAAAAAAAAAAAAAAAAAAAAAAAAAAAAAAAAAAAAAAAAAAAAAAAAAAAAAAAAAAAAAAAAAAAAAAAAAAAAAAAAAAAAAAAAAAAAAAAAAAAAAAAAAAAAAAAAAAAAAAAAAAAAAAAAAAAAAAAAAAAAAAAAAAAAAAAAAAAAAAAAAAAAAAAAAAAAAAAAAAAAAAAAAAAAAAAAAAAAAAAAAAAAAAAAAAAAAAAAAAAAAAAAAAAAAAAAAAAAAAAAAAAAAAAAAAAAAAAAAAAAAAAAAAAAAAAAAAAAAAAAAAAAAAAAAAAAAAAAAAAAAAAAAAAAAAAAAAAAAAAAAAAAAAAAAAAAAAAAAAAAAAAAAAAAAAAAAAAAAAAAAAAAAAAAAAAAAAAAAAAAAAAAAAAAAAAAAAAAAAAAAAAAAAAAAAAAAAAAAAAAAAAAAAAAAAAAAAAAAAAAAAAAAAAAAAAAAAAAAAAAAAAAAAAAAAAAAAAAAAAAAAAAAAAAAAAAAAAAAAAAAAAAAAAAAAAAAAAAAAAAAAAAAAAAAAAAAAAAAAAAAAAAAAAAAAAAAAAAAAAAAAAAAAAAAAAAAAAAAAAAAAAAAAAAAAAAAAAAAAAAAAAAAAAAAAAAAAAAAAAAAAAAAAAAAAAAAAAAAAAAAAAAAAAAAAAAAAAAAAAAAAAAAAAAAAAAAAAAAAAAAAAAAAAAAAAAAAAAAAAAAAAAAAAAAAAAAAAAAAAAAAAAAAAAAAAAAAAAAAAAAAAAAAAAAAAAAAAAAAAAAAAAAAAAAAAAAAAAAAAAAAAAAAAAAAAAAAAAAAAAAAAAAAAAAAAAAAAAAAAAAAAAAAAAAAAAAAAAAAAAAAAAAAAAAAAAAAAAAAAAAAAAAAAAAAAAAAAAAAAAAAAAAAAAAAAAAAAAAAAAAAAAAAAAAAAAAAAAAAAAAAAAAAAAAAAAAAAAAAAAAAAAAAAAAAAAAAAAAAAAAAAAAAAAAAAAAAAAAAAAAAAAAAAAAAAAAAAAAAAAAAAAAAAAAAAAAAAAAAAAAAAAAAAAAAAAPZYQAn3EFXCS0VE5v8f0TSgYFmnbYwRMAuSr5PlPdwsgumlP2rT8QVCsjBsTRFiv3PR4CrK9M7I3sS5QedNTKBYsGo=</c2pa:manifest></metadata><title>1-GLOBE</title><path fill="#FFFFFF" fill-rule="evenodd" d="M720.4 280.8C720.2 285.1 721.3 289.9 721.8 294.2C722.7 303.6 723.7 315.4 722.8 324.8C721.8 333.9 721.9 343.1 721 352.2C718.8 374 710.4 412.7 700.7 432C698.1 437.2 696.3 442.8 693.7 448C680.7 474 665 499 645.5 520.8C604 566.9 557.4 593.2 498.8 610.8C479.8 616.5 460.3 618 440.8 620C414.8 622.6 375.4 620.3 350.5 612.9C342.3 610.4 334 608.3 325.8 605.9C291.8 595.7 252 572.9 225.8 549.2C214.1 538.8 203.2 527.9 192.8 516.2C189.3 512.4 179.7 498.4 176.8 496.3C175 495.1 164.2 498 162.6 499.5C163.2 503.3 167.8 507.8 170.2 510.8C176.7 518.9 183.3 526.8 190.2 534.5C220 567.5 251.6 587.5 290.8 607C312 617.7 344.7 628.4 368.2 630.8C379.3 631.9 390.2 633.6 401.2 634.8C417.3 636.4 436 635.4 452 633.8C459.3 633 466.5 631.5 473.8 630.8C493.4 628.8 520.5 619.5 539 612.1C616.8 581 681.6 517.3 712.9 439.2C725 408.9 732.5 377.8 735.8 345.2C736.7 335.8 737.7 325.5 736.8 316C735.8 306.2 736 296 735 286C734.6 282.5 735 276.6 733 273.6C730.8 273.5 721.6 278.8 720.4 280.8ZM149 478.4C152.3 478.7 159.5 477.2 162.1 475.2C162.1 472 154 459.3 152.1 455.5C146 443.3 139.8 430.3 135.9 417.2C123.5 376 116.2 338.4 120.5 295C121.6 284.4 121.9 272.6 124.9 262.2C126.7 256.5 127.2 250.5 128.9 244.8C131.4 236.6 133.9 228.4 136.4 220.2C146.2 187.5 172.5 147 195.2 121.8C227.4 86.1 276.9 50.8 323.2 36.9C338.7 32.2 354.3 26.1 370.5 24.5C389.5 22.6 410.5 17.8 429.8 19.8C435.7 20.4 441.8 20.1 447.8 20.8C472.6 23.2 496.1 28.7 520 35.9C541.7 42.4 565.9 53.9 584.5 66.9C593 72.9 602.2 78.3 610 85.2C615.8 90.4 621.8 95.3 627.5 100.5C649.5 120.3 672.7 150 686 176.5C694.2 193.1 702.5 209.9 707.9 227.8C709.7 234 711.2 240.3 713 246.5C713.8 249.1 713.8 252.8 715.8 254.7C719 254.2 725.6 250.4 727.5 247.8C727.8 239.9 723.4 230.7 721.1 223.2C715.1 203.1 705.6 184.9 696.3 166.2C679.2 132 652.1 103.8 624 78.5C612.3 67.9 597.1 56.3 583 49.2C566.7 41.1 551.4 30.9 533.8 25.6C512.6 19.3 492 11.2 469.8 9C448 6.8 426 3.8 404 6C396.6 6.7 389.2 7.5 381.8 8.2C375.5 8.9 369.5 10.6 363.2 11.2C349.3 12.6 335.3 18.4 322 22.4C278.8 35.3 238.6 61.2 205.2 91.2C184.3 110.1 168 132.8 151.9 155.8C140.4 172.1 126.9 201.5 121.1 220.8C118.5 229.5 116.4 238.5 113.8 247.2C104.4 278.6 103.5 318.1 106.8 350.5C107.9 361.9 108.9 374.2 112.2 385.2C114.6 393.2 116 401.5 118.4 409.5C120.1 415.1 122.4 420.4 124.1 426C128.1 439.2 134.6 452 140.7 464.2C142.8 468.4 145.3 475.6 149 478.4Z"/><path fill="#43C6FA" fill-rule="evenodd" d="M721.3 130C723.7 130.9 738.5 129.6 742 129.2C755.3 127.9 768.9 129.2 782 130.5C790.9 131.4 801 131.9 809.2 135.9C817.1 139.9 826 143.1 828.8 152.5C834.4 171.3 814.4 192.9 801.8 204.2C765.9 236.5 713.3 266.6 670 288.2C651.6 297.5 633.4 307.2 615 316.5C604.5 321.7 593.6 326.4 583 331.7C560.5 343 536.5 351.5 514 362.8C511.5 364 508.5 364.5 506 365.8C489.1 374.2 470.9 379.3 454 387.7C450.9 389.2 447.3 389.8 444.2 391.3C434.6 396.1 409.6 405.8 399.2 408.9C396.2 409.8 393.4 411.7 390.2 412.6C377.3 416.5 364.9 422.7 352 426.6C327.8 433.9 304.3 443.6 280 450.9C260.2 456.8 240.3 462.6 220.5 468.5C211.3 471.3 201.7 472.9 192.5 475.6C175.5 480.7 143.1 487.5 125.5 489.2C122.8 489.5 120.2 490.7 117.5 491C101.2 492.6 84.4 495.4 68 493.8C55.2 492.5 31.6 491.8 24.8 478.2C20.6 469.8 23.2 461.2 27.2 453.2C34.1 439.4 47 428.9 58.2 418.8C61.1 416.1 72.4 408.6 73.2 405.8C68.6 406.5 57.8 415.8 53.5 418.9C37.8 429.8 19.3 446.2 10.7 463.5C7.4 470.1 3.6 479.9 7.3 487.2C15.2 503 36.4 504.7 51.8 506.2C65.5 507.6 79.9 505.6 93.5 504.2C115.6 502 148.2 497.5 169.2 491.2C173.6 489.9 178.2 489.6 182.5 488.3C197.7 483.7 213.5 480.9 228.8 476.3C251.2 469.6 273.6 462.8 296 456.1C321.3 448.5 345.7 438.2 371 430.6C380.6 427.7 389.7 423.2 399.2 420.4C408.8 417.5 417.7 412.3 427.2 409.4C437.2 406.4 463 396.2 472.2 391.5C479.6 387.9 487.9 385.9 495.2 382.2C501.5 379.1 508.3 377.3 514.5 374.2C531.9 365.5 550.4 359.1 567.8 350.5C587.5 340.6 607.8 332 627.5 322.2C649.3 311.3 670.5 299.4 692.2 288.5C719.7 274.8 748.8 258.3 774 240.6C792.8 227.5 813 215 828.5 197.8C838 187.2 854.8 168.1 850.1 152.5C846.3 140 834.9 134.1 823.2 130.6C799.6 123.5 773.9 124.1 749.5 126.5C746.2 126.8 742.8 126.9 739.5 127.2C736.7 127.5 734 128.7 731.2 129C727.9 129.3 724.4 128.5 721.3 130Z"/></svg>
