<svg xmlns="http://www.w3.org/2000/svg" viewBox="40 40 900 900" width="32" height="32" xmlns:c2pa="http://c2pa.org/manifest"><metadata><c2pa:manifest>AAAWgmp1bWIAAAAeanVtZGMycGEAEQAQgAAAqgA4m3EDYzJwYQAAABZcanVtYgAAAEdqdW1kYzJtYQARABCAAACqADibcQN1cm46YzJwYTphZWRiOTgwZC03MDI0LTQxMDEtYmYzMy1lMTU2NGI1MTFjNTEAAAADl2p1bWIAAAApanVtZGMyYXMAEQAQgAAAqgA4m3EDYzJwYS5hc3NlcnRpb25zAAAAALxqdW1iAAAARGp1bWRjYm9yABEAEIAAAKoAOJtxE2MycGEuaW5ncmVkaWVudC52MwAAAAAYYzJzaM46vp91p5PC5zkxv7Ko/5oAAABwY2JvcqNpZGM6Zm9ybWF0bWltYWdlL3N2Zyt4bWxqaW5zdGFuY2VJRHgseG1wOmlpZDo5MGRiNGQ2ZC1jN2U2LTQzYzAtODU4Ni03MWIzNzc0NTE0YjdscmVsYXRpb25zaGlwaHBhcmVudE9mAAAB4mp1bWIAAABBanVtZGNib3IAEQAQgAAAqgA4m3ETYzJwYS5hY3Rpb25zLnYyAAAAABhjMnNo12wIbp4JCUgCEWJRMBAKJwAAAZljYm9yomdhY3Rpb25zgqJmYWN0aW9ua2MycGEub3BlbmVkanBhcmFtZXRlcnOha2luZ3JlZGllbnRzgaJjdXJseC1zZWxmI2p1bWJmPWMycGEuYXNzZXJ0aW9ucy9jMnBhLmluZ3JlZGllbnQudjNkaGFzaFggORdOOO1WEr9ZvGhtDjKY0CUyE69aQsGLhaOOZ+JcwkOkZmFjdGlvbngdY29tLmFudGhyb3BpYy5jbGF1ZGUucHJvdmlkZWRqcGFyYW1ldGVyc6F4H2NvbS5hbnRocm9waWMub3JpZ2luLWNvbmZpZGVuY2VndW5rbm93bmtkZXNjcmlwdGlvbnhmQ2xhdWRlIHByb3ZpZGVkIHRoaXMgZmlsZSBhdCB0aGUgcmVxdWVzdCBvZiBhIHVzZXIgYW5kIG1heSBoYXZlIGNyZWF0ZWQgb3IgbW9kaWZpZWQgdGhlIGZpbGUgY29udGVudHMubXNvZnR3YXJlQWdlbnShZG5hbWVmQ2xhdWRlcmFsbEFjdGlvbnNJbmNsdWRlZPUAAADIanVtYgAAAEBqdW1kY2JvcgARABCAAACqADibcRNjMnBhLmhhc2guZGF0YQAAAAAYYzJzaDmUGDUZHQWsDb7434pPcyQAAACAY2JvcqVjYWxnZnNoYTI1NmNwYWRNAAAAAAAAAAAAAAAAAGRoYXNoWCAI6ZWMj6P7WtK1r5aaitQw7mo7pIZUEZetuhNz+uPWWmRuYW1lbmp1bWJmIG1hbmlmZXN0amV4Y2x1c2lvbnOBomVzdGFydBiWZmxlbmd0aBkeBAAAAj5qdW1iAAAAJ2p1bWRjMmNsABEAEIAAAKoAOJtxA2MycGEuY2xhaW0udjIAAAACD2Nib3KlY2FsZ2ZzaGEyNTZpc2lnbmF0dXJleE1zZWxmI2p1bWJmPS9jMnBhL3VybjpjMnBhOmFlZGI5ODBkLTcwMjQtNDEwMS1iZjMzLWUxNTY0YjUxMWM1MS9jMnBhLnNpZ25hdHVyZWppbnN0YW5jZUlEeCx4bXA6aWlkOmQyMDk3YWE3LWIwMmUtNDk2OS1hYTQyLTU1MTQxYzdjYjA2ZHJjcmVhdGVkX2Fzc2VydGlvbnODomN1cmx4LXNlbGYjanVtYmY9YzJwYS5hc3NlcnRpb25zL2MycGEuaW5ncmVkaWVudC52M2RoYXNoWCA5F0447VYSv1m8aG0OMpjQJTITr1pCwYuFo45n4lzCQ6JjdXJseCpzZWxmI2p1bWJmPWMycGEuYXNzZXJ0aW9ucy9jMnBhLmFjdGlvbnMudjJkaGFzaFggA4wZxlQc8/5snHbE/wo844c+KR8XXBIfWxRZhiK6wgeiY3VybHgpc2VsZiNqdW1iZj1jMnBhLmFzc2VydGlvbnMvYzJwYS5oYXNoLmRhdGFkaGFzaFggwMS1Kcm2HV0moS4G+JCJAG3ZsWPZv8fXTIQauQOQuSZ0Y2xhaW1fZ2VuZXJhdG9yX2luZm+jZG5hbWVvQW50aHJvcGljIEZpbGVzZ3ZlcnNpb25lMS4wLjBrc3BlY1ZlcnNpb25lMi40LjAAABA4anVtYgAAAChqdW1kYzJjcwARABCAAACqADibcQNjMnBhLnNpZ25hdHVyZQAAABAIY2JvctKEWQISogEmGCFZAgowggIGMIIBjaADAgECAhRA5aAK7sI50L64g/oGQgU9Z1UTADAKBggqhkjOPQQDAzBJMRcwFQYDVQQKEw5BbnRocm9waWMsIFBCQzEuMCwGA1UEAxMlQW50aHJvcGljIENvbnRlbnQgQ3JlZGVudGlhbHMgUm9vdCBDQTAeFw0yNjA4MDcxODQzNTZaFw0yODA4MDYxOTQzNTZaMEQxFzAVBgNVBAoTDkFudGhyb3BpYywgUEJDMSkwJwYDVQQDEyBBbnRocm9waWMgQ2xhdWRlIENvbnRlbnQgU2lnbmluZzBZMBMGByqGSM49AgEGCCqGSM49AwEHA0IABJh6CmvLUBgFFNU0vUKlOVtE6djd17L5SuwX0LemFisBM3dkd/3cyjxFA3Qo5S46fX0/ihY0VZ7mfb9KF703t5OjWDBWMA4GA1UdDwEB/wQEAwIHgDAVBgNVHSUEDjAMBgorBgEEAYPoXgIBMAwGA1UdEwEB/wQCMAAwHwYDVR0jBBgwFoAUzlHiBIFOZFsj+OPEz5o+nMHXXMIwCgYIKoZIzj0EAwMDZwAwZAIwMXMdFJ4BetLLVY7ORuE9noqbbAZOZn/aArXyTwFAZfKrPzxF2vPoJNf1+UCdg1XGAjBwX1zd9WGqYkqmL5SFqw1QySjr1zJfpJM9+1rdDwSPLMOPOjKuiXjoU/pUUeG9RwmhY3BhZFkNngAAAAAAAAAAAAAAAAAAAAAAAAAAAAAAAAAAAAAAAAAAAAAAAAAAAAAAAAAAAAAAAAAAAAAAAAAAAAAAAAAAAAAAAAAAAAAAAAAAAAAAAAAAAAAAAAAAAAAAAAAAAAAAAAAAAAAAAAAAAAAAAAAAAAAAAAAAAAAAAAAAAAAAAAAAAAAAAAAAAAAAAAAAAAAAAAAAAAAAAAAAAAAAAAAAAAAAAAAAAAAAAAAAAAAAAAAAAAAAAAAAAAAAAAAAAAAAAAAAAAAAAAAAAAAAAAAAAAAAAAAAAAAAAAAAAAAAAAAAAAAAAAAAAAAAAAAAAAAAAAAAAAAAAAAAAAAAAAAAAAAAAAAAAAAAAAAAAAAAAAAAAAAAAAAAAAAAAAAAAAAAAAAAAAAAAAAAAAAAAAAAAAAAAAAAAAAAAAAAAAAAAAAAAAAAAAAAAAAAAAAAAAAAAAAAAAAAAAAAAAAAAAAAAAAAAAAAAAAAAAAAAAAAAAAAAAAAAAAAAAAAAAAAAAAAAAAAAAAAAAAAAAAAAAAAAAAAAAAAAAAAAAAAAAAAAAAAAAAAAAAAAAAAAAAAAAAAAAAAAAAAAAAAAAAAAAAAAAAAAAAAAAAAAAAAAAAAAAAAAAAAAAAAAAAAAAAAAAAAAAAAAAAAAAAAAAAAAAAAAAAAAAAAAAAAAAAAAAAAAAAAAAAAAAAAAAAAAAAAAAAAAAAAAAAAAAAAAAAAAAAAAAAAAAAAAAAAAAAAAAAAAAAAAAAAAAAAAAAAAAAAAAAAAAAAAAAAAAAAAAAAAAAAAAAAAAAAAAAAAAAAAAAAAAAAAAAAAAAAAAAAAAAAAAAAAAAAAAAAAAAAAAAAAAAAAAAAAAAAAAAAAAAAAAAAAAAAAAAAAAAAAAAAAAAAAAAAAAAAAAAAAAAAAAAAAAAAAAAAAAAAAAAAAAAAAAAAAAAAAAAAAAAAAAAAAAAAAAAAAAAAAAAAAAAAAAAAAAAAAAAAAAAAAAAAAAAAAAAAAAAAAAAAAAAAAAAAAAAAAAAAAAAAAAAAAAAAAAAAAAAAAAAAAAAAAAAAAAAAAAAAAAAAAAAAAAAAAAAAAAAAAAAAAAAAAAAAAAAAAAAAAAAAAAAAAAAAAAAAAAAAAAAAAAAAAAAAAAAAAAAAAAAAAAAAAAAAAAAAAAAAAAAAAAAAAAAAAAAAAAAAAAAAAAAAAAAAAAAAAAAAAAAAAAAAAAAAAAAAAAAAAAAAAAAAAAAAAAAAAAAAAAAAAAAAAAAAAAAAAAAAAAAAAAAAAAAAAAAAAAAAAAAAAAAAAAAAAAAAAAAAAAAAAAAAAAAAAAAAAAAAAAAAAAAAAAAAAAAAAAAAAAAAAAAAAAAAAAAAAAAAAAAAAAAAAAAAAAAAAAAAAAAAAAAAAAAAAAAAAAAAAAAAAAAAAAAAAAAAAAAAAAAAAAAAAAAAAAAAAAAAAAAAAAAAAAAAAAAAAAAAAAAAAAAAAAAAAAAAAAAAAAAAAAAAAAAAAAAAAAAAAAAAAAAAAAAAAAAAAAAAAAAAAAAAAAAAAAAAAAAAAAAAAAAAAAAAAAAAAAAAAAAAAAAAAAAAAAAAAAAAAAAAAAAAAAAAAAAAAAAAAAAAAAAAAAAAAAAAAAAAAAAAAAAAAAAAAAAAAAAAAAAAAAAAAAAAAAAAAAAAAAAAAAAAAAAAAAAAAAAAAAAAAAAAAAAAAAAAAAAAAAAAAAAAAAAAAAAAAAAAAAAAAAAAAAAAAAAAAAAAAAAAAAAAAAAAAAAAAAAAAAAAAAAAAAAAAAAAAAAAAAAAAAAAAAAAAAAAAAAAAAAAAAAAAAAAAAAAAAAAAAAAAAAAAAAAAAAAAAAAAAAAAAAAAAAAAAAAAAAAAAAAAAAAAAAAAAAAAAAAAAAAAAAAAAAAAAAAAAAAAAAAAAAAAAAAAAAAAAAAAAAAAAAAAAAAAAAAAAAAAAAAAAAAAAAAAAAAAAAAAAAAAAAAAAAAAAAAAAAAAAAAAAAAAAAAAAAAAAAAAAAAAAAAAAAAAAAAAAAAAAAAAAAAAAAAAAAAAAAAAAAAAAAAAAAAAAAAAAAAAAAAAAAAAAAAAAAAAAAAAAAAAAAAAAAAAAAAAAAAAAAAAAAAAAAAAAAAAAAAAAAAAAAAAAAAAAAAAAAAAAAAAAAAAAAAAAAAAAAAAAAAAAAAAAAAAAAAAAAAAAAAAAAAAAAAAAAAAAAAAAAAAAAAAAAAAAAAAAAAAAAAAAAAAAAAAAAAAAAAAAAAAAAAAAAAAAAAAAAAAAAAAAAAAAAAAAAAAAAAAAAAAAAAAAAAAAAAAAAAAAAAAAAAAAAAAAAAAAAAAAAAAAAAAAAAAAAAAAAAAAAAAAAAAAAAAAAAAAAAAAAAAAAAAAAAAAAAAAAAAAAAAAAAAAAAAAAAAAAAAAAAAAAAAAAAAAAAAAAAAAAAAAAAAAAAAAAAAAAAAAAAAAAAAAAAAAAAAAAAAAAAAAAAAAAAAAAAAAAAAAAAAAAAAAAAAAAAAAAAAAAAAAAAAAAAAAAAAAAAAAAAAAAAAAAAAAAAAAAAAAAAAAAAAAAAAAAAAAAAAAAAAAAAAAAAAAAAAAAAAAAAAAAAAAAAAAAAAAAAAAAAAAAAAAAAAAAAAAAAAAAAAAAAAAAAAAAAAAAAAAAAAAAAAAAAAAAAAAAAAAAAAAAAAAAAAAAAAAAAAAAAAAAAAAAAAAAAAAAAAAAAAAAAAAAAAAAAAAAAAAAAAAAAAAAAAAAAAAAAAAAAAAAAAAAAAAAAAAAAAAAAAAAAAAAAAAAAAAAAAAAAAAAAAAAAAAAAAAAAAAAAAAAAAAAAAAAAAAAAAAAAAAAAAAAAAAAAAAAAAAAAAAAAAAAAAAAAAAAAAAAAAAAAAAAAAAAAAAAAAAAAAAAAAAAAAAAAAAAAAAAAAAAAAAAAAAAAAAAAAAAAAAAAAAAAAAAAAAAAAAAAAAAAAAAAAAAAAAAAAAAAAAAAAAAAAAAAAAAAAAAAAAAAAAAAAAAAAAAAAAAAAAAAAAAAAAAAAAAAAAAAAAAAAAAAAAAAAAAAAAAAAAAAAAAAAAAAAAAAAAAAAAAAAAAAAAAAAAAAAAAAAAAAAAAAAAAAAAAAAAAAAAAAAAAAAAAAAAAAAAAAAAAAAAAAAAAAAAAAAAAAAAAAAAAAAAAAAAAAAAAAAAAAAAAAAAAAAAAAAAAAAAAAAAAAAAAAAAAAAAAAAAAAAAAAAAAAAAAAAAAAAAAAAAAAAAAAAAAAAAAAAAAAAAAAAAAAAAAAAAAAAAAAAAAAAAAAAAAAAAAAAAAAAAAAAAAAAAAAAAAAAAAAAAAAAAAAAAAAAAAAAAAAAAAAAAAAAAAAAAAAAAAAAAAAAAAAAAAAAAAAAAAAAAAAAAAAAAAAAAAAAAAAAAAAAAAAAAAAAAAAAAAAAAAAAAAAAAAAAAAAAAAAAAAAAAAAAAAAAAAAAAAAAAAAAAAAAAAAAAAAAAAAAAAAAAAAAAAAAAAAAAAAAAAAAAAAAAAAAAAAAAAAAAAAAAAAAAAAAAAAAAAAAAAAAAAAAAAAAAAAAAAAAAAAAAAAAAAAAAAAAAAAAAAAAAAAAAAAAAAAAAAAAAAAAAAAAAAAAAAAAAAAAAAAAAAAAAAAAAAAAAAAAAAAAAAAAAAAAAAAAAAAAAAAAAAAAAAAAAAAAAAAAAAAAAAAAAAAAAAAAAAAAAAAAAAAAAAAAAAAAAAAAAAAAAAAAAAAAAAAAAAAAAAAAAAAAAAAAAAAAAAAAAAAAAAAAAAAAAAAAAAAAAAAAAAAAAAAAAAAAAAAAAAAAAAAAAAAAAAAAAAAAAAAAAAAAAAAAAAAAAAAAAAAAAAAAAAAAAAAAAAAAAAAAAAAAAAAAAAAAAAAAAAAAAAAAAAAAAAAAAAAAAAAAAAAAAAAAAAAAAAAAAAAAAAAAAAAAAAAAAAAAAAAAAAAAAAAAAAAAAAAAAAAAAAAAAAAAAAAAAAAAAAAAAAAAAAAAAAAAAAAAAAAAAAAAAAAAAAAAAAAAAAAAAAAAAAAAAAAAAAAAAAAAAAAAAAAAAAAAAAAAAAAAAAAAAAAAAAAAAAAAAAAAAAAAAAAAAAAAAAAAAAAAAAAAAAAAAAAAAAAAAAAAAAAAAAAAAAAAAAAAAAAAAAAAAAAAAAAAAAAAAAAAAAAAAAAAAAAAAAAAAAAAAAAAAAAAAAAAAAAAAAAAAAAAAAAAAAAAAAAAAAAAAAAAAAAAAAAAAAAAAAAAAAAAAAAAAAAAAAAAAAAAAAAAAAAAAAAAAAAAAAAAAAAAAAAAAAAAAAAAAAAAAAAAAAAAAAAAAAAAAAAAAAAAAAAAAAAAAAAAAAAAAAAAAAAAAAAAAAAAAAAAAAAAAAAAAAAAAAAAAAAAAAAAAAAAAAAAAAAAAAAAAAAAAAAAAAAAAAAAAAAAAAAAAAAAAAAAAAAAAAAAAAAAAAAAAAAAAAAAAAAAAAAAAAAAAAAAAAAAAAAAAAAAAAAAAAAAAAAAAAAAAAAAAAAAAAAAAAAAAAAAAAAAAAAAAAAAAAAAAAAAAAAAAAAAAAAAAAAAAAAAAAAAAAAAAAAAAAAAAAAAAAAAAAAAAAAAAAAAAAAAAAAAAAAAAAAAAAAAAAAAAAAAAAAAAAAAAAAAAAAAAAAAAAAAAAAAPZYQD+W1R5yokW5TnghDLIfnThWhl+S4rLDsuZkQaXVmC8fVZ0DsIv+mnFjiwpDwc1IsJeo2SY0L1tThqc4TxWDVAQ=</c2pa:manifest></metadata><rect x="40" y="40" width="900" height="900" fill="#000"/><path fill="#fff" stroke="#fff" stroke-width="22" stroke-linejoin="round" d="M782.4 450.8C782.2 455.1 783.3 459.9 783.8 464.2C784.7 473.6 785.7 485.4 784.8 494.8C783.8 503.9 783.9 513.1 783 522.2C780.8 544 772.4 582.7 762.7 602C760.1 607.2 758.3 612.8 755.7 618C742.7 644 727 669 707.5 690.8C666 736.9 619.4 763.2 560.8 780.8C541.8 786.5 522.3 788 502.8 790C476.8 792.6 437.4 790.3 412.5 782.9C404.3 780.4 396 778.3 387.8 775.9C353.8 765.7 314 742.9 287.8 719.2C276.1 708.8 265.2 697.9 254.8 686.2C251.3 682.4 241.7 668.4 238.8 666.3C237 665.1 226.2 668 224.6 669.5C225.2 673.3 229.8 677.8 232.2 680.8C238.7 688.9 245.3 696.8 252.2 704.5C282 737.5 313.6 757.5 352.8 777C374 787.7 406.7 798.4 430.2 800.8C441.3 801.9 452.2 803.6 463.2 804.8C479.3 806.4 498 805.4 514 803.8C521.3 803 528.5 801.5 535.8 800.8C555.4 798.8 582.5 789.5 601 782.1C678.8 751 743.6 687.3 774.9 609.2C787 578.9 794.5 547.8 797.8 515.2C798.7 505.8 799.7 495.5 798.8 486C797.8 476.2 798 466 797 456C796.6 452.5 797 446.6 795 443.6C792.8 443.5 783.6 448.8 782.4 450.8ZM211 648.4C214.3 648.7 221.5 647.2 224.1 645.2C224.1 642 216 629.3 214.1 625.5C208 613.3 201.8 600.3 197.9 587.2C185.5 546 178.2 508.4 182.5 465C183.6 454.4 183.9 442.6 186.9 432.2C188.7 426.5 189.2 420.5 190.9 414.8C193.4 406.6 195.9 398.4 198.4 390.2C208.2 357.5 234.5 317 257.2 291.8C289.4 256.1 338.9 220.8 385.2 206.9C400.7 202.2 416.3 196.1 432.5 194.5C451.5 192.6 472.5 187.8 491.8 189.8C497.7 190.4 503.8 190.1 509.8 190.8C534.6 193.2 558.1 198.7 582 205.9C603.7 212.4 627.9 223.9 646.5 236.9C655 242.9 664.2 248.3 672 255.2C677.8 260.4 683.8 265.3 689.5 270.5C711.5 290.3 734.7 320 748 346.5C756.2 363.1 764.5 379.9 769.9 397.8C771.7 404 773.2 410.3 775 416.5C775.8 419.1 775.8 422.8 777.8 424.7C781 424.2 787.6 420.4 789.5 417.8C789.8 409.9 785.4 400.7 783.1 393.2C777.1 373.1 767.6 354.9 758.3 336.2C741.2 302 714.1 273.8 686 248.5C674.3 237.9 659.1 226.3 645 219.2C628.7 211.1 613.4 200.9 595.8 195.6C574.6 189.3 554 181.2 531.8 179C510 176.8 488 173.8 466 176C458.6 176.7 451.2 177.5 443.8 178.2C437.5 178.9 431.5 180.6 425.2 181.2C411.3 182.6 397.3 188.4 384 192.4C340.8 205.3 300.6 231.2 267.2 261.2C246.3 280.1 230 302.8 213.9 325.8C202.4 342.1 188.9 371.5 183.1 390.8C180.5 399.5 178.4 408.5 175.8 417.2C166.4 448.6 165.5 488.1 168.8 520.5C169.9 531.9 170.9 544.2 174.2 555.2C176.6 563.2 178 571.5 180.4 579.5C182.1 585.1 184.4 590.4 186.1 596C190.1 609.2 196.6 622 202.7 634.2C204.8 638.4 207.3 645.6 211 648.4Z"/><path fill="#000" stroke="#000" stroke-width="54" stroke-linejoin="round" d="M783.3 300C785.7 300.9 800.5 299.6 804 299.2C817.3 297.9 830.9 299.2 844 300.5C852.9 301.4 863 301.9 871.2 305.9C879.1 309.9 888 313.1 890.8 322.5C896.4 341.3 876.4 362.9 863.8 374.2C827.9 406.5 775.3 436.6 732 458.2C713.6 467.5 695.4 477.2 677 486.5C666.5 491.7 655.6 496.4 645 501.7C622.5 513 598.5 521.5 576 532.8C573.5 534 570.5 534.5 568 535.8C551.1 544.2 532.9 549.3 516 557.7C512.9 559.2 509.3 559.8 506.2 561.3C496.6 566.1 471.6 575.8 461.2 578.9C458.2 579.8 455.4 581.7 452.2 582.6C439.3 586.5 426.9 592.7 414 596.6C389.8 603.9 366.3 613.6 342 620.9C322.2 626.8 302.3 632.6 282.5 638.5C273.3 641.3 263.7 642.9 254.5 645.6C237.5 650.7 205.1 657.5 187.5 659.2C184.8 659.5 182.2 660.7 179.5 661C163.2 662.6 146.4 665.4 130 663.8C117.2 662.5 93.6 661.8 86.8 648.2C82.6 639.8 85.2 631.2 89.2 623.2C96.1 609.4 109 598.9 120.2 588.8C123.1 586.1 134.4 578.6 135.2 575.8C130.6 576.5 119.8 585.8 115.5 588.9C99.8 599.8 81.3 616.2 72.7 633.5C69.4 640.1 65.6 649.9 69.3 657.2C77.2 673 98.4 674.7 113.8 676.2C127.5 677.6 141.9 675.6 155.5 674.2C177.6 672 210.2 667.5 231.2 661.2C235.6 659.9 240.2 659.6 244.5 658.3C259.7 653.7 275.5 650.9 290.8 646.3C313.2 639.6 335.6 632.8 358 626.1C383.3 618.5 407.7 608.2 433 600.6C442.6 597.7 451.7 593.2 461.2 590.4C470.8 587.5 479.7 582.3 489.2 579.4C499.2 576.4 525 566.2 534.2 561.5C541.6 557.9 549.9 555.9 557.2 552.2C563.5 549.1 570.3 547.3 576.5 544.2C593.9 535.5 612.4 529.1 629.8 520.5C649.5 510.6 669.8 502 689.5 492.2C711.3 481.3 732.5 469.4 754.2 458.5C781.7 444.8 810.8 428.3 836 410.6C854.8 397.5 875 385 890.5 367.8C900 357.2 916.8 338.1 912.1 322.5C908.3 310 896.9 304.1 885.2 300.6C861.6 293.5 835.9 294.1 811.5 296.5C808.2 296.8 804.8 296.9 801.5 297.2C798.7 297.5 796 298.7 793.2 299C789.9 299.3 786.4 298.5 783.3 300Z"/><path fill="#43C6FA" stroke="#43C6FA" stroke-width="20" stroke-linejoin="round" d="M783.3 300C785.7 300.9 800.5 299.6 804 299.2C817.3 297.9 830.9 299.2 844 300.5C852.9 301.4 863 301.9 871.2 305.9C879.1 309.9 888 313.1 890.8 322.5C896.4 341.3 876.4 362.9 863.8 374.2C827.9 406.5 775.3 436.6 732 458.2C713.6 467.5 695.4 477.2 677 486.5C666.5 491.7 655.6 496.4 645 501.7C622.5 513 598.5 521.5 576 532.8C573.5 534 570.5 534.5 568 535.8C551.1 544.2 532.9 549.3 516 557.7C512.9 559.2 509.3 559.8 506.2 561.3C496.6 566.1 471.6 575.8 461.2 578.9C458.2 579.8 455.4 581.7 452.2 582.6C439.3 586.5 426.9 592.7 414 596.6C389.8 603.9 366.3 613.6 342 620.9C322.2 626.8 302.3 632.6 282.5 638.5C273.3 641.3 263.7 642.9 254.5 645.6C237.5 650.7 205.1 657.5 187.5 659.2C184.8 659.5 182.2 660.7 179.5 661C163.2 662.6 146.4 665.4 130 663.8C117.2 662.5 93.6 661.8 86.8 648.2C82.6 639.8 85.2 631.2 89.2 623.2C96.1 609.4 109 598.9 120.2 588.8C123.1 586.1 134.4 578.6 135.2 575.8C130.6 576.5 119.8 585.8 115.5 588.9C99.8 599.8 81.3 616.2 72.7 633.5C69.4 640.1 65.6 649.9 69.3 657.2C77.2 673 98.4 674.7 113.8 676.2C127.5 677.6 141.9 675.6 155.5 674.2C177.6 672 210.2 667.5 231.2 661.2C235.6 659.9 240.2 659.6 244.5 658.3C259.7 653.7 275.5 650.9 290.8 646.3C313.2 639.6 335.6 632.8 358 626.1C383.3 618.5 407.7 608.2 433 600.6C442.6 597.7 451.7 593.2 461.2 590.4C470.8 587.5 479.7 582.3 489.2 579.4C499.2 576.4 525 566.2 534.2 561.5C541.6 557.9 549.9 555.9 557.2 552.2C563.5 549.1 570.3 547.3 576.5 544.2C593.9 535.5 612.4 529.1 629.8 520.5C649.5 510.6 669.8 502 689.5 492.2C711.3 481.3 732.5 469.4 754.2 458.5C781.7 444.8 810.8 428.3 836 410.6C854.8 397.5 875 385 890.5 367.8C900 357.2 916.8 338.1 912.1 322.5C908.3 310 896.9 304.1 885.2 300.6C861.6 293.5 835.9 294.1 811.5 296.5C808.2 296.8 804.8 296.9 801.5 297.2C798.7 297.5 796 298.7 793.2 299C789.9 299.3 786.4 298.5 783.3 300Z"/></svg>